<svg id="Слой_1" data-name="Слой 1" xmlns="http://www.w3.org/2000/svg" viewBox="0 0 156.51 156.51"><defs><style>.cls-1{fill:#695fa7;}.cls-2{fill:#fff;}.cls-3{font-size:88.22px;fill:#f6f6f6;font-family:Sathu, Sathu;}</style></defs><title>knock logo</title><circle class="cls-1" cx="78.26" cy="78.26" r="78.26"/><polygon class="cls-2" points="40 96.64 29.7 86.44 38.2 78.02 29.7 69.61 40 59.41 43.52 62.97 36.81 69.61 45.31 78.02 36.81 86.44 43.52 93.08 40 96.64"/><polygon class="cls-2" points="23.64 91.05 16.43 83.92 22.38 78.02 16.43 72.13 23.64 65 26.1 67.49 21.41 72.13 27.36 78.02 21.4 83.92 26.1 88.56 23.64 91.05"/><polygon class="cls-2" points="114.77 97.53 125.07 87.33 116.57 78.91 125.07 70.5 114.77 60.3 111.25 63.86 117.96 70.5 109.46 78.91 117.96 87.33 111.25 93.97 114.77 97.53"/><polygon class="cls-2" points="131.13 91.94 138.34 84.81 132.39 78.91 138.34 73.02 131.13 65.89 128.67 68.38 133.36 73.02 127.41 78.91 133.37 84.81 128.67 89.45 131.13 91.94"/><text class="cls-3" transform="translate(52.81 112.92)">K</text></svg>